<svg width="20" height="20" viewBox="0 0 20 20" fill="none" xmlns="http://www.w3.org/2000/svg">
<path d="M8.90001 0.099977C4.30001 0.599977 0.600009 4.29998 0.100009 8.79998C-0.399991 13.5 2.30001 17.7 6.40001 19.3C6.70001 19.4 7.00001 19.2 7.00001 18.8V17.2C7.00001 17.2 6.60001 17.3 6.10001 17.3C4.70001 17.3 4.10001 16.1 4.00001 15.4C3.90001 15 3.70001 14.7 3.40001 14.4C3.10001 14.3 3.00001 14.3 3.00001 14.2C3.00001 14 3.30001 14 3.40001 14C4.00001 14 4.50001 14.7 4.70001 15C5.20001 15.8 5.80001 16 6.10001 16C6.50001 16 6.80001 15.9 7.00001 15.8C7.10001 15.1 7.40001 14.4 8.00001 14C5.70001 13.5 4.00001 12.2 4.00001 9.99998C4.00001 8.89998 4.50001 7.79998 5.20001 6.99998C5.10001 6.79998 5.00001 6.29998 5.00001 5.59998C5.00001 5.19998 5.00001 4.59998 5.30001 3.99998C5.30001 3.99998 6.70001 3.99998 8.10001 5.29998C8.60001 5.09998 9.30001 4.99998 10 4.99998C10.7 4.99998 11.4 5.09998 12 5.29998C13.3 3.99998 14.8 3.99998 14.8 3.99998C15 4.59998 15 5.19998 15 5.59998C15 6.39998 14.9 6.79998 14.8 6.99998C15.5 7.79998 16 8.79998 16 9.99998C16 12.2 14.3 13.5 12 14C12.6 14.5 13 15.4 13 16.3V18.9C13 19.2 13.3 19.5 13.7 19.4C17.4 17.9 20 14.3 20 10.1C20 4.09998 14.9 -0.600023 8.90001 0.099977Z" fill="#DCF64B"/>
</svg>
