<!-- Generated by IcoMoon.io -->
<svg version="1.1" xmlns="http://www.w3.org/2000/svg" width="32" height="32" viewBox="0 0 32 32">
<title>icon-google</title>
<path fill="#dcf64b" d="M12.545 11.331v3.293h5.445c-0.221 1.414-1.646 4.14-5.445 4.14-3.277 0-5.951-2.715-5.951-6.060s2.674-6.060 5.951-6.060c1.864 0 3.113 0.795 3.825 1.481l2.606-2.509c-1.672-1.567-3.84-2.513-6.431-2.513-5.306 0-9.6 4.294-9.6 9.6s4.294 9.6 9.6 9.6c5.539 0 9.218-3.896 9.218-9.379 0-0.63-0.067-1.11-0.15-1.59l-9.068-0.004z"></path>
</svg>
